# xmcd
#
# Track frame offsets:
#	150
#	15312
#	75097
#	102980
#	121274
#	140388
#	158574
#	203628
#
# Disc length: 2886 seconds
#
# Revision: 0
# Processed by: cddbd v1.5.2PL0 Copyright (c) Steve Scherf et al.
# Submitted via: EasyCDDAExtractor 10.0.3.1
#
DISCID=4e0b4408
DTITLE=Mike Bloomfield and Friends - Live at the Swing Auditorium in San Berna
DTITLE=dino
DYEAR=1971
DGENRE=Blues
TTITLE0=If You See My Baby
TTITLE1=Poor Kelly
TTITLE2=Statesboro Blues
TTITLE3=You Won't See Me
TTITLE4=She's MINe
TTITLE5=Come Back Baby
TTITLE6=Driftin And Driftin
TTITLE7=Drinkin Wine
EXTD=
EXTT0=
EXTT1=
EXTT2=
EXTT3=
EXTT4=
EXTT5=
EXTT6=
EXTT7=
PLAYORDER=
